<svg width="1024" height="1024" viewBox="0 0 1024 1024" fill="none" xmlns="http://www.w3.org/2000/svg">
<rect width="1024" height="1024" fill="#ECECEC"/>
<rect x="327" y="112" width="106" height="98" rx="12" fill="black"/>
<rect x="460" y="112" width="106" height="98" rx="12" fill="black"/>
<rect x="593" y="112" width="106" height="98" rx="12" fill="black"/>
<rect x="726" y="112" width="106" height="98" rx="12" fill="black"/>
<rect x="191" y="269" width="110" height="166" rx="14" fill="black"/>
<rect x="327" y="269" width="106" height="166" rx="14" fill="black"/>
<rect x="327" y="462" width="106" height="100" rx="12" fill="black"/>
<rect x="460" y="462" width="106" height="100" rx="12" fill="black"/>
<rect x="593" y="462" width="106" height="100" rx="12" fill="black"/>
<rect x="591" y="272" width="106" height="98" rx="12" fill="black"/>
<rect x="726" y="272" width="106" height="98" rx="12" fill="black"/>
<rect x="593" y="593" width="106" height="156" rx="14" fill="black"/>
<rect x="726" y="593" width="106" height="156" rx="14" fill="black"/>
<rect x="191" y="649" width="110" height="100" rx="12" fill="black"/>
<rect x="327" y="649" width="106" height="100" rx="12" fill="black"/>
<rect x="191" y="780" width="110" height="100" rx="12" fill="black"/>
<rect x="327" y="780" width="106" height="100" rx="12" fill="black"/>
<rect x="460" y="780" width="106" height="100" rx="12" fill="black"/>
<rect x="593" y="780" width="106" height="100" rx="12" fill="black"/>
<rect x="370" y="210" width="20" height="59" fill="black"/>
<rect x="370" y="435" width="20" height="27" fill="black"/>
<rect x="697" y="309" width="29" height="22" fill="black"/>
<rect x="370" y="749" width="20" height="31" fill="black"/>
<rect x="697" y="817" width="29" height="22" fill="black"/>
<rect x="637" y="562" width="20" height="31" fill="black"/>
<rect x="301" y="687" width="26" height="20" fill="black"/>
</svg>